<?xml version="1.0" encoding="UTF-8"?>
<svg width="33px" height="32px" viewBox="0 0 33 32" version="1.1" xmlns="http://www.w3.org/2000/svg" xmlns:xlink="http://www.w3.org/1999/xlink">
    <title>142C4A42-714F-4EA7-9FB2-77214F4166D5</title>
    <g id="DESKTOP-FINAL" stroke="none" stroke-width="1" fill="none" fill-rule="evenodd">
        <g id="V2-Home-Desktop1a" transform="translate(-188.000000, -6772.000000)" fill="#FFFFFF">
            <g id="Footer" transform="translate(0.453125, 6392.000000)">
                <g id="Group-11" transform="translate(188.000000, 380.000000)">
                    <path d="M16.0004204,7.28306304e-14 C24.836762,7.28306304e-14 32,7.16323796 32,16.0004204 C32,24.7315675 25.0063001,31.8292096 16.3152834,31.9969637 L16.0004204,32 C7.16323796,32 -1.42108547e-13,24.836762 -1.42108547e-13,16.0004204 C-1.42108547e-13,7.16323796 7.16323796,7.28306304e-14 16.0004204,7.28306304e-14 Z M20.6985628,6.72604503 L18.0014188,6.72604503 L18.0014188,6.72604503 C15.1033341,6.72604503 13.7967999,8.00231208 13.7967999,10.4455479 L13.7967999,13.0493681 L13.7967999,13.0493681 L11.7705788,13.0493681 L11.7705788,16.35606 L13.7967999,16.35606 L13.7967999,26.068469 L17.6911799,26.068469 L17.6911799,16.314863 L20.4093429,16.314863 L20.6985628,13.0493681 L17.6911799,13.0493681 L17.6911799,11.1896167 L17.6911799,11.1896167 C17.6911799,10.4194845 17.8467197,10.115131 18.5907885,10.115131 L20.6985628,10.115131 L20.6985628,10.115131 L20.6985628,6.72604503 Z" id="facebook"></path>
                </g>
            </g>
        </g>
    </g>
</svg>