<?xml version="1.0" encoding="UTF-8"?>
<svg width="33px" height="32px" viewBox="0 0 33 32" version="1.1" xmlns="http://www.w3.org/2000/svg" xmlns:xlink="http://www.w3.org/1999/xlink">
    <title>7E8BE1CF-5124-4296-9FA1-365B69D5FE51</title>
    <g id="DESKTOP-FINAL" stroke="none" stroke-width="1" fill="none" fill-rule="evenodd">
        <g id="V2-Home-Desktop1a" transform="translate(-284.000000, -6772.000000)" fill="#FFFFFF">
            <g id="Footer" transform="translate(0.453125, 6392.000000)">
                <g id="Group-11" transform="translate(188.000000, 380.000000)">
                    <path d="M111.99958,-1.19015908e-13 C120.836762,-1.19015908e-13 128,7.16323796 128,16.0004204 C128,24.7315675 121.0063,31.8292096 112.314472,31.9969637 L111.99958,32 C103.163238,32 96,24.836762 96,16.0004204 C96,7.16323796 103.163238,-1.19015908e-13 111.99958,-1.19015908e-13 Z M112.615339,7.56685054 L112.339245,7.56680066 C112.148629,7.56680066 111.971352,7.56686523 111.80602,7.56700599 L111.34447,7.56766848 C109.844719,7.57086857 109.508353,7.5837503 108.722314,7.61976827 C107.789075,7.6626468 107.150942,7.81061979 106.59268,8.02753475 C106.015922,8.2520165 105.526602,8.55216626 105.038964,9.03980452 C104.551326,9.52744279 104.251176,10.0167626 104.027535,10.5935209 C103.81062,11.1517827 103.661806,11.7890754 103.619768,12.7231549 C103.58375,13.5091942 103.570869,13.8455597 103.567668,15.3453107 L103.567006,15.8068612 C103.566936,15.8895268 103.566884,15.9751789 103.566851,16.0639916 L103.566801,16.3400857 C103.566801,16.5307018 103.566865,16.7079788 103.567006,16.8733101 L103.567668,17.3348606 C103.570869,18.8346116 103.58375,19.1709771 103.619768,19.9570164 C103.661806,20.8910959 103.81062,21.5283886 104.027535,22.0866504 C104.251176,22.6634087 104.551326,23.1527285 105.038964,23.6403668 C105.526602,24.128005 106.015922,24.4281548 106.59268,24.6526366 C107.150942,24.8687108 107.789075,25.0175245 108.722314,25.060403 C109.545784,25.0973963 109.875734,25.1096484 111.566808,25.1120563 L113.111681,25.1120563 C114.802756,25.1096484 115.132706,25.0973963 115.956176,25.060403 C116.890255,25.0175245 117.527548,24.8687108 118.08581,24.6526366 C118.662568,24.4281548 119.151888,24.128005 119.639526,23.6403668 C120.128005,23.1527285 120.427314,22.6634087 120.651796,22.0866504 C120.868711,21.5283886 121.016684,20.8910959 121.059562,19.9570164 C121.066423,19.8072946 121.072444,19.6738875 121.077719,19.5456478 L121.085083,19.3557703 C121.103289,18.8523332 121.110296,18.3423944 121.112055,17.1125221 L121.112055,15.5676492 C121.110516,14.491511 121.104959,13.9665718 121.091397,13.5148881 L121.085083,13.3244011 L121.085083,13.3244011 L121.077719,13.1345235 C121.072444,13.0062838 121.066423,12.8728767 121.059562,12.7231549 C121.016684,11.7890754 120.868711,11.1517827 120.651796,10.5935209 C120.427314,10.0167626 120.128005,9.52744279 119.639526,9.03980452 C119.151888,8.55216626 118.662568,8.2520165 118.08581,8.02753475 C117.527548,7.81061979 116.890255,7.6626468 115.956176,7.61976827 C115.170136,7.5837503 114.833771,7.57086857 113.33402,7.56766848 L112.872469,7.56700599 C112.789804,7.56693561 112.704152,7.56688428 112.615339,7.56685054 Z M115.884711,9.19870734 C116.73976,9.23822285 117.203857,9.38115131 117.513255,9.50137936 C117.922703,9.66028218 118.215286,9.85029295 118.522162,10.1571688 C118.829038,10.4640446 119.019048,10.7566275 119.177951,11.1660755 C119.298179,11.4754736 119.441108,11.9395707 119.480623,12.7954599 C119.515935,13.5723181 119.52811,13.8923837 119.531103,15.3632345 L119.531103,17.3169368 C119.52811,18.7877876 119.515935,19.1078532 119.480623,19.8847114 C119.441108,20.7406006 119.298179,21.2046977 119.177951,21.5140958 C119.019048,21.9235438 118.829038,22.215286 118.522162,22.5230025 C118.215286,22.8298784 117.922703,23.0198891 117.513255,23.1787919 C117.203857,23.29902 116.73976,23.4419485 115.884711,23.4806232 C115.107147,23.5159349 114.787562,23.5281104 113.316384,23.5311026 L111.362394,23.5311026 C109.891543,23.5281104 109.571477,23.5159349 108.794619,23.4806232 C107.939571,23.4419485 107.474633,23.29902 107.165235,23.1787919 C106.755787,23.0198891 106.464045,22.8298784 106.157169,22.5230025 C105.850293,22.215286 105.659441,21.9235438 105.500539,21.5140958 C105.380311,21.2046977 105.237382,20.7406006 105.198707,19.8847114 C105.161714,19.0708599 105.150113,18.758341 105.147861,17.0988132 L105.147861,15.5813581 C105.150113,13.9218303 105.161714,13.6093114 105.198707,12.7954599 C105.237382,11.9395707 105.380311,11.4754736 105.500539,11.1660755 C105.659441,10.7566275 105.850293,10.4640446 106.157169,10.1571688 C106.464045,9.85029295 106.755787,9.66028218 107.165235,9.50137936 C107.474633,9.38115131 107.939571,9.23822285 108.794619,9.19870734 C109.608471,9.16171409 109.92099,9.15011301 111.580517,9.14786145 L113.097974,9.14786145 C114.757512,9.15011301 115.07012,9.16171409 115.884711,9.19870734 Z M112.275347,11.7705788 C109.787552,11.7705788 107.770579,13.7875516 107.770579,16.2753475 C107.770579,18.7631434 109.787552,20.7801161 112.275347,20.7801161 C114.763984,20.7801161 116.780116,18.7631434 116.780116,16.2753475 C116.780116,13.7875516 114.763984,11.7705788 112.275347,11.7705788 Z M112.275347,13.3511994 C113.890439,13.3511994 115.199496,14.6602559 115.199496,16.2753475 C115.199496,17.890439 113.890439,19.1994955 112.275347,19.1994955 C110.660256,19.1994955 109.351199,17.890439 109.351199,16.2753475 C109.351199,14.6602559 110.660256,13.3511994 112.275347,13.3511994 Z M117.230761,10.9298232 C116.649799,10.9298232 116.178135,11.4006463 116.178135,11.9824492 C116.178135,12.5634114 116.649799,13.0350753 117.230761,13.0350753 C117.812564,13.0350753 118.284228,12.5634114 118.284228,11.9824492 C118.284228,11.4006463 117.812564,10.9298232 117.230761,10.9298232 Z" id="instagram"></path>
                </g>
            </g>
        </g>
    </g>
</svg>