<?xml version="1.0" encoding="UTF-8"?>
<svg width="33px" height="32px" viewBox="0 0 33 32" version="1.1" xmlns="http://www.w3.org/2000/svg" xmlns:xlink="http://www.w3.org/1999/xlink">
    <title>120558EB-1D70-4CCF-BE39-FB766CEE2F99</title>
    <g id="DESKTOP-FINAL" stroke="none" stroke-width="1" fill="none" fill-rule="evenodd">
        <g id="V2-Home-Desktop1a" transform="translate(-236.000000, -6772.000000)" fill="#FFFFFF">
            <g id="Footer" transform="translate(0.453125, 6392.000000)">
                <g id="Group-11" transform="translate(188.000000, 380.000000)">
                    <path d="M63.9995796,7.10542736e-14 C72.8359213,7.10542736e-14 79.9991592,7.16323796 79.9991592,16.0004204 C79.9991592,24.7315675 73.0054594,31.8292096 64.3144426,31.9969637 L63.9995796,32 C55.163238,32 48,24.836762 48,16.0004204 C48,7.16323796 55.163238,7.10542736e-14 63.9995796,7.10542736e-14 Z M67.3710097,9.24831192 C65.1135808,9.24831192 63.4539292,11.3544048 63.9642679,13.5428917 C61.0569349,13.397441 58.4791782,12.0043089 56.7547884,9.88812695 C55.8383647,11.46034 56.2789207,13.517669 57.8368409,14.5585245 C57.2634455,14.5400279 56.7236804,14.3819658 56.2520165,14.1204908 C56.2141825,15.7414676 57.375266,17.2565093 59.057618,17.5944931 C58.5649352,17.729014 58.0260109,17.7592812 57.478679,17.6541867 C57.9225979,19.0447965 59.2148393,20.0553848 60.7458553,20.0839705 C59.2753737,21.2366464 57.4231891,21.7511889 55.5668007,21.5317517 C57.1154725,22.5246841 58.9542051,23.1039647 60.9291401,23.1039647 C67.4239773,23.1039647 71.0921941,17.618875 70.8719161,12.698773 C71.5546097,12.2060902 72.1481832,11.5898163 72.6173248,10.8877854 C71.9892804,11.1660755 71.3149944,11.3544048 70.6079189,11.4384803 C71.330128,11.0063319 71.8850267,10.3211161 72.1456609,9.50306088 C71.4696934,9.90410131 70.7205801,10.1958435 69.9252253,10.3522241 C69.286251,9.67289351 68.3773942,9.24831192 67.3710097,9.24831192 Z" id="twitter"></path>
                </g>
            </g>
        </g>
    </g>
</svg>